<?xml version="1.0"?><svg version="1.1" id="圖層_1" xmlns="http://www.w3.org/2000/svg" x="0" y="0" viewBox="0 0 100 100" xml:space="preserve"><path d="M10 38.031v-13.26A5.771 5.771 0 0 1 15.771 19h13.895" stroke="#e15b64" stroke-width="3.5" fill="none" stroke-miterlimit="10"/><path d="M29.031 80.333h-13.26A5.77 5.77 0 0 1 10 74.562V60.667" stroke="#e15b64" stroke-width="3.5" fill="none" stroke-miterlimit="10"/><path d="M89.333 61.302v13.26a5.77 5.77 0 0 1-5.771 5.771H69.667" stroke="#e15b64" stroke-width="3.5" fill="none" stroke-miterlimit="10"/><path d="M70.302 19h13.26a5.77 5.77 0 0 1 5.771 5.771v13.895" stroke="#e15b64" stroke-width="3.5" fill="none" stroke-miterlimit="10"/><path stroke="#333" stroke-width="4" fill="none" stroke-miterlimit="10" d="M25 32.444v35.112"/><path stroke="#333" stroke-width="4" fill="none" stroke-miterlimit="10" d="M33.334 32.444v26.445"/><path stroke="#333" stroke-width="4" fill="none" stroke-miterlimit="10" d="M41.667 32.444v26.445"/><path stroke="#333" stroke-width="4" fill="none" stroke-miterlimit="10" d="M50 32.444v26.445"/><path stroke="#333" stroke-width="4" fill="none" stroke-miterlimit="10" d="M58.333 32.444v35.112"/><path stroke="#333" stroke-width="4" fill="none" stroke-miterlimit="10" d="M66.666 32.444v26.445"/><path stroke="#333" stroke-width="4" fill="none" stroke-miterlimit="10" d="M75 32.444v35.112"/><metadata xmlns:d="https://loading.io/stock/">
<d:name>barcode</d:name>
<d:tags>barcode,scan,swipe,purchase,cashier,tag,encode,product,price,shopping</d:tags>
<d:license>by</d:license>
<d:slug>epdawf</d:slug>
</metadata></svg>